<mxfile host="app.diagrams.net" agent="Mozilla/5.0 (Windows NT 10.0; Win64; x64) AppleWebKit/537.36 (KHTML, like Gecko) Chrome/136.0.0.0 Safari/537.36" version="27.0.6">
  <diagram name="Page-1" id="WodKc6_ZIuvCr9vI83p-">
    <mxGraphModel dx="1367" dy="814" grid="1" gridSize="10" guides="1" tooltips="1" connect="1" arrows="1" fold="1" page="1" pageScale="1" pageWidth="850" pageHeight="1100" math="0" shadow="0">
      <root>
        <mxCell id="0" />
        <mxCell id="1" parent="0" />
        <mxCell id="mf4hABHOTUurk3NJhZ-f-36" value="" style="edgeStyle=orthogonalEdgeStyle;rounded=0;orthogonalLoop=1;jettySize=auto;html=1;" edge="1" parent="1" source="mf4hABHOTUurk3NJhZ-f-1" target="mf4hABHOTUurk3NJhZ-f-35">
          <mxGeometry relative="1" as="geometry" />
        </mxCell>
        <mxCell id="mf4hABHOTUurk3NJhZ-f-1" value="Mulai" style="rounded=1;whiteSpace=wrap;html=1;" vertex="1" parent="1">
          <mxGeometry x="365" y="30" width="120" height="60" as="geometry" />
        </mxCell>
        <mxCell id="mf4hABHOTUurk3NJhZ-f-5" value="" style="edgeStyle=orthogonalEdgeStyle;rounded=0;orthogonalLoop=1;jettySize=auto;html=1;" edge="1" parent="1" target="mf4hABHOTUurk3NJhZ-f-4">
          <mxGeometry relative="1" as="geometry">
            <mxPoint x="630" y="250" as="sourcePoint" />
          </mxGeometry>
        </mxCell>
        <mxCell id="mf4hABHOTUurk3NJhZ-f-16" style="edgeStyle=orthogonalEdgeStyle;rounded=0;orthogonalLoop=1;jettySize=auto;html=1;endArrow=none;startFill=0;" edge="1" parent="1" source="mf4hABHOTUurk3NJhZ-f-9">
          <mxGeometry relative="1" as="geometry">
            <mxPoint x="425" y="300" as="targetPoint" />
          </mxGeometry>
        </mxCell>
        <mxCell id="mf4hABHOTUurk3NJhZ-f-9" value="Spliting Data" style="rounded=0;whiteSpace=wrap;html=1;" vertex="1" parent="1">
          <mxGeometry x="365" y="210" width="120" height="60" as="geometry" />
        </mxCell>
        <mxCell id="mf4hABHOTUurk3NJhZ-f-18" value="" style="endArrow=none;html=1;rounded=0;" edge="1" parent="1">
          <mxGeometry width="50" height="50" relative="1" as="geometry">
            <mxPoint x="270" y="300" as="sourcePoint" />
            <mxPoint x="580" y="300" as="targetPoint" />
          </mxGeometry>
        </mxCell>
        <mxCell id="mf4hABHOTUurk3NJhZ-f-19" value="" style="endArrow=classic;html=1;rounded=0;" edge="1" parent="1">
          <mxGeometry width="50" height="50" relative="1" as="geometry">
            <mxPoint x="269.76" y="300" as="sourcePoint" />
            <mxPoint x="269.76" y="330" as="targetPoint" />
          </mxGeometry>
        </mxCell>
        <mxCell id="mf4hABHOTUurk3NJhZ-f-20" value="" style="endArrow=classic;html=1;rounded=0;" edge="1" parent="1">
          <mxGeometry width="50" height="50" relative="1" as="geometry">
            <mxPoint x="579.76" y="300" as="sourcePoint" />
            <mxPoint x="579.76" y="330" as="targetPoint" />
          </mxGeometry>
        </mxCell>
        <mxCell id="mf4hABHOTUurk3NJhZ-f-24" value="" style="edgeStyle=orthogonalEdgeStyle;rounded=0;orthogonalLoop=1;jettySize=auto;html=1;" edge="1" parent="1" source="mf4hABHOTUurk3NJhZ-f-21" target="mf4hABHOTUurk3NJhZ-f-23">
          <mxGeometry relative="1" as="geometry" />
        </mxCell>
        <mxCell id="mf4hABHOTUurk3NJhZ-f-21" value="Data Training" style="shape=parallelogram;perimeter=parallelogramPerimeter;whiteSpace=wrap;html=1;fixedSize=1;" vertex="1" parent="1">
          <mxGeometry x="210" y="330" width="120" height="60" as="geometry" />
        </mxCell>
        <mxCell id="mf4hABHOTUurk3NJhZ-f-33" style="edgeStyle=orthogonalEdgeStyle;rounded=0;orthogonalLoop=1;jettySize=auto;html=1;endArrow=none;startFill=0;" edge="1" parent="1" source="mf4hABHOTUurk3NJhZ-f-22">
          <mxGeometry relative="1" as="geometry">
            <mxPoint x="580" y="570" as="targetPoint" />
          </mxGeometry>
        </mxCell>
        <mxCell id="mf4hABHOTUurk3NJhZ-f-22" value="Data Testing" style="shape=parallelogram;perimeter=parallelogramPerimeter;whiteSpace=wrap;html=1;fixedSize=1;" vertex="1" parent="1">
          <mxGeometry x="520" y="330" width="120" height="60" as="geometry" />
        </mxCell>
        <mxCell id="mf4hABHOTUurk3NJhZ-f-29" value="" style="edgeStyle=orthogonalEdgeStyle;rounded=0;orthogonalLoop=1;jettySize=auto;html=1;" edge="1" parent="1" source="mf4hABHOTUurk3NJhZ-f-23" target="mf4hABHOTUurk3NJhZ-f-28">
          <mxGeometry relative="1" as="geometry" />
        </mxCell>
        <mxCell id="mf4hABHOTUurk3NJhZ-f-23" value="Cross Validation" style="whiteSpace=wrap;html=1;" vertex="1" parent="1">
          <mxGeometry x="210" y="410" width="120" height="60" as="geometry" />
        </mxCell>
        <mxCell id="mf4hABHOTUurk3NJhZ-f-41" value="" style="edgeStyle=orthogonalEdgeStyle;rounded=0;orthogonalLoop=1;jettySize=auto;html=1;" edge="1" parent="1" source="mf4hABHOTUurk3NJhZ-f-28" target="mf4hABHOTUurk3NJhZ-f-40">
          <mxGeometry relative="1" as="geometry" />
        </mxCell>
        <mxCell id="mf4hABHOTUurk3NJhZ-f-28" value="Pelatihan Model" style="shape=parallelogram;perimeter=parallelogramPerimeter;whiteSpace=wrap;html=1;fixedSize=1;" vertex="1" parent="1">
          <mxGeometry x="210" y="490" width="120" height="60" as="geometry" />
        </mxCell>
        <mxCell id="mf4hABHOTUurk3NJhZ-f-34" style="edgeStyle=orthogonalEdgeStyle;rounded=0;orthogonalLoop=1;jettySize=auto;html=1;endArrow=none;startFill=1;startArrow=classic;" edge="1" parent="1">
          <mxGeometry relative="1" as="geometry">
            <mxPoint x="580" y="570" as="targetPoint" />
            <mxPoint x="270" y="570" as="sourcePoint" />
          </mxGeometry>
        </mxCell>
        <mxCell id="mf4hABHOTUurk3NJhZ-f-37" style="edgeStyle=orthogonalEdgeStyle;rounded=0;orthogonalLoop=1;jettySize=auto;html=1;entryX=0.5;entryY=0;entryDx=0;entryDy=0;" edge="1" parent="1" source="mf4hABHOTUurk3NJhZ-f-35" target="mf4hABHOTUurk3NJhZ-f-9">
          <mxGeometry relative="1" as="geometry" />
        </mxCell>
        <mxCell id="mf4hABHOTUurk3NJhZ-f-35" value="Data" style="shape=parallelogram;perimeter=parallelogramPerimeter;whiteSpace=wrap;html=1;fixedSize=1;rounded=0;" vertex="1" parent="1">
          <mxGeometry x="365" y="110" width="120" height="60" as="geometry" />
        </mxCell>
        <mxCell id="mf4hABHOTUurk3NJhZ-f-38" value="Selesai" style="rounded=1;whiteSpace=wrap;html=1;" vertex="1" parent="1">
          <mxGeometry x="210" y="690" width="120" height="60" as="geometry" />
        </mxCell>
        <mxCell id="mf4hABHOTUurk3NJhZ-f-42" style="edgeStyle=orthogonalEdgeStyle;rounded=0;orthogonalLoop=1;jettySize=auto;html=1;entryX=0.5;entryY=0;entryDx=0;entryDy=0;" edge="1" parent="1" source="mf4hABHOTUurk3NJhZ-f-40" target="mf4hABHOTUurk3NJhZ-f-38">
          <mxGeometry relative="1" as="geometry" />
        </mxCell>
        <mxCell id="mf4hABHOTUurk3NJhZ-f-40" value="Pengujian Model &amp;amp; Tuning" style="whiteSpace=wrap;html=1;" vertex="1" parent="1">
          <mxGeometry x="210" y="600" width="120" height="60" as="geometry" />
        </mxCell>
      </root>
    </mxGraphModel>
  </diagram>
</mxfile>
